<svg xmlns="http://www.w3.org/2000/svg" width="48" height="48" viewBox="0 0 48 48">
  <g id="Group_2" data-name="Group 2" transform="translate(3191 216) rotate(180)">
    <g id="icon-arrow" transform="translate(3143 168)">
      <path id="Path_1" data-name="Path 1" d="M0,0H48V48H0Z" fill="none"/>
      <path id="Path_2" data-name="Path 2" d="M24,4,20.475,7.525,34.425,21.5H4v5H34.425L20.475,40.475,24,44,44,24Z"/>
    </g>
    <g id="icon-arrow-2" data-name="icon-arrow" transform="translate(3143 168)">
      <path id="Path_1-2" data-name="Path 1" d="M0,0H48V48H0Z" fill="none"/>
      <path id="Path_2-2" data-name="Path 2" d="M24,4,20.475,7.525,34.425,21.5H4v5H34.425L20.475,40.475,24,44,44,24Z"/>
    </g>
    <g id="icon-arrow-3" data-name="icon-arrow" transform="translate(3143 168)">
      <path id="Path_1-3" data-name="Path 1" d="M0,0H48V48H0Z" fill="none"/>
      <path id="Path_2-3" data-name="Path 2" d="M24,4,20.475,7.525,34.425,21.5H4v5H34.425L20.475,40.475,24,44,44,24Z"/>
    </g>
    <g id="icon-arrow-4" data-name="icon-arrow" transform="translate(3143 168)">
      <path id="Path_1-4" data-name="Path 1" d="M0,0H48V48H0Z" fill="none"/>
      <path id="Path_2-4" data-name="Path 2" d="M24,4,20.475,7.525,34.425,21.5H4v5H34.425L20.475,40.475,24,44,44,24Z"/>
    </g>
  </g>
</svg>
